HIERARCHY
ROOT hip
{
	OFFSET 0.000000 0.000000 0.000000 
	CHANNELS 6 Xposition Yposition Zposition Xrotation Zrotation Yrotation
	JOINT abdomen
	{
		OFFSET 0.000000 3.402643 0.000000 
		CHANNELS 3 Xrotation Zrotation Yrotation
		JOINT chest
		{
			OFFSET 0.000000 8.438565 -0.680529 
			CHANNELS 3 Xrotation Zrotation Yrotation
			JOINT neck
			{
				OFFSET 0.000000 10.207942 -0.272212 
				CHANNELS 3 Xrotation Zrotation Yrotation
				JOINT head
				{
					OFFSET 0.000000 3.130431 0.000000 
					CHANNELS 3 Xrotation Zrotation Yrotation
					End Site
					{
						OFFSET 0.000000 3.130435 0.000000 
					}
				}
			}
			JOINT lCollar
			{
				OFFSET 3.470700 6.669187 -0.816635 
				CHANNELS 3 Yrotation Zrotation Xrotation
				JOINT lShldr
				{
					OFFSET 3.198488 0.000000 0.000000 
					CHANNELS 3 Zrotation Yrotation Xrotation
					JOINT lForeArm
					{
						OFFSET 10.139888 0.000000 0.000000 
						CHANNELS 3 Yrotation Zrotation Xrotation
						JOINT lHand
						{
							OFFSET 8.370511 0.000000 0.000000 
							CHANNELS 3 Zrotation Yrotation Xrotation
							End Site
							{
								OFFSET 4.083176 0.000000 0.000000 
							}
						}
					}
				}
			}
			JOINT rCollar
			{
				OFFSET -3.470700 6.669187 -0.816635 
				CHANNELS 3 Yrotation Zrotation Xrotation
				JOINT rShldr
				{
					OFFSET -3.198488 0.000000 0.000000 
					CHANNELS 3 Zrotation Yrotation Xrotation
					JOINT rForeArm
					{
						OFFSET -10.139888 0.000000 0.000000 
						CHANNELS 3 Yrotation Zrotation Xrotation
						JOINT rHand
						{
							OFFSET -8.370511 0.000000 0.000000 
							CHANNELS 3 Zrotation Yrotation Xrotation
							End Site
							{
								OFFSET -4.083176 0.000000 0.000000 
							}
						}
					}
				}
			}
		}
	}
	JOINT lThigh
	{
		OFFSET 5.308129 -1.633274 1.361059 
		CHANNELS 3 Xrotation Zrotation Yrotation
		JOINT lShin
		{
			OFFSET -2.041588 -20.007561 0.000000 
			CHANNELS 3 Xrotation Zrotation Yrotation
			JOINT lFoot
			{
				OFFSET 0.000000 -19.190928 -1.224953 
				CHANNELS 3 Xrotation Yrotation Zrotation
				End Site
				{
					OFFSET 0.000000 -2.449906 4.627600 
				}
			}
		}
	}
	JOINT rThigh
	{
		OFFSET -5.308129 -1.633274 1.361059 
		CHANNELS 3 Xrotation Zrotation Yrotation
		JOINT rShin
		{
			OFFSET 2.041588 -20.007561 0.000000 
			CHANNELS 3 Xrotation Zrotation Yrotation
			JOINT rFoot
			{
				OFFSET 0.000000 -19.190928 -1.224953 
				CHANNELS 3 Xrotation Yrotation Zrotation
				End Site
				{
					OFFSET 0.000000 -2.449906 4.627600 
				}
			}
		}
	}
}
MOTION
Frames: 8
Frame Time: 0.016667
-0.361088 46.234829 -1.398051 1.966550 3.494040 -12.350400 -14.517700 -0.628489 12.919600 17.173901 -5.137570 6.416200 20.763500 15.310300 -17.002001 16.345600 9.003990 -8.877950 2.000000 -2.000000 0.000000 -87.135101 24.871599 133.503998 37.236698 -0.323695 0.082787 0.075761 -0.079985 -166.824005 -2.000000 2.000000 0.000000 -109.307999 119.431000 19.897699 -82.207603 0.233386 0.135462 -0.054947 0.013249 -141.658005 -78.085976 -14.774701 -20.088814 86.088028 -0.876466 4.579371 3.170688 -5.004889 1.752011 -11.842849 3.626801 -11.375266 17.071058 -2.372729 -1.551939 -9.450110 1.445295 0.915569 
-0.393446 46.312389 -1.587014 2.153640 3.981570 -12.750500 -14.134600 -0.678295 13.198300 17.203501 -5.108470 6.548590 20.279499 15.605600 -17.475599 16.240400 9.103320 -9.087670 2.000000 -2.000000 0.000000 -88.159698 25.163700 132.985992 36.250401 -0.325103 0.080901 0.076035 -0.080459 -167.018997 -2.000000 2.000000 0.000000 -110.232002 116.514000 21.219200 -81.484901 0.235093 0.135217 -0.054812 0.011504 -141.033005 -80.658295 -15.698648 -20.388577 85.997025 -0.809202 4.559748 3.094121 -5.326102 1.957519 -11.975958 3.199569 -11.713157 16.351591 -2.351993 -1.493814 -9.245487 1.941723 0.997034 
-0.430038 46.360481 -1.785167 2.340350 4.225000 -13.186600 -13.701600 -0.688271 13.470400 17.252300 -5.147720 6.683200 19.432400 16.043400 -17.924601 16.000999 9.322270 -9.258110 2.000000 -2.000000 0.000000 -89.105797 25.221300 132.350998 35.371498 -0.326330 0.079200 0.075994 -0.080388 -166.990005 -2.000000 2.000000 0.000000 -112.112999 113.440002 22.160999 -80.781799 0.236751 0.134958 -0.054862 0.012185 -141.276993 -82.863243 -16.331741 -20.744493 85.847084 -0.733662 4.543809 3.098480 -5.817623 2.231443 -12.077024 3.108626 -11.826051 15.596087 -2.313017 -1.463944 -8.793282 2.297503 1.079544 
-0.466628 46.408707 -1.983310 2.517420 4.468360 -13.612200 -13.268900 -0.701787 13.731700 17.301100 -5.186970 6.817750 18.591900 16.479601 -18.371799 15.751200 9.532220 -9.433950 2.000000 -2.000000 0.000000 -90.061600 25.278799 131.716003 34.482800 -0.327544 0.077462 0.075952 -0.080317 -166.960999 -2.000000 2.000000 0.000000 -114.110001 110.346001 22.955400 -80.078697 0.238405 0.134679 -0.054913 0.012840 -141.511993 -85.100334 -16.993288 -21.090458 85.687363 -0.651271 4.535199 3.106651 -6.292300 2.490453 -12.208193 3.004793 -11.960780 14.877258 -2.280030 -1.395235 -8.318403 2.629651 1.114808 
-0.520236 46.444714 -2.173925 2.714180 4.692020 -13.811000 -12.876500 -0.742409 13.862000 17.301300 -5.157720 6.874690 17.840700 17.139900 -18.708099 15.633200 9.823800 -9.532010 2.000000 -2.000000 0.000000 -91.027298 25.404800 131.091003 34.023800 -0.328160 0.076557 0.076021 -0.080435 -167.009995 -2.000000 2.000000 0.000000 -116.790001 107.601997 23.164000 -79.395103 0.240010 0.134389 -0.054956 0.013357 -141.697006 -86.885628 -17.751429 -21.507593 85.340858 -0.566546 4.503641 3.148602 -6.591423 2.708522 -12.292428 2.973181 -11.753104 14.072298 -2.231716 -1.346756 -7.637571 2.696062 1.073260 
-0.573844 46.480591 -2.364529 2.911110 4.915560 -14.017200 -12.473500 -0.789493 14.001500 17.291599 -5.128430 6.932500 17.083900 17.792900 -19.043900 15.505800 10.125500 -9.631090 2.000000 -2.000000 0.000000 -91.983200 25.530800 130.455994 33.574600 -0.328756 0.075666 0.076090 -0.090319 -167.057999 -2.000000 2.000000 0.000000 -119.898003 104.866997 22.913099 -78.701698 0.241635 0.134074 -0.054998 0.013848 -141.873001 -88.673714 -18.529573 -21.917578 84.994331 -0.475806 4.476659 3.181474 -6.880625 2.919259 -12.320731 2.922448 -11.530347 13.143288 -2.155227 -1.307868 -6.871624 2.766279 1.019141 
-0.638277 46.468109 -2.529241 3.225280 5.021370 -14.013700 -12.038300 -0.892714 14.068600 17.487499 -5.168400 6.956180 16.365801 18.366800 -19.383900 15.415500 10.358900 -9.708440 2.000000 -2.000000 0.000000 -92.714600 25.451900 129.981995 33.291401 -0.329129 0.075102 0.076200 -0.090508 -167.136993 -2.000000 2.000000 0.000000 -125.250000 102.624001 20.005199 -78.154800 0.242913 0.133812 -0.054938 0.013140 -141.619003 -90.206161 -19.267988 -22.302301 84.657570 -0.386792 4.446010 3.273329 -7.490562 3.198712 -12.661854 3.044060 -11.245899 12.723830 -2.111632 -1.282743 -6.052905 2.540784 0.949824 
-0.702710 46.455521 -2.693939 3.539620 5.136720 -14.008400 -11.603000 -0.996021 14.134000 17.683399 -5.208320 6.969830 15.643600 18.941099 -19.727400 15.315000 10.583300 -9.780440 2.000000 -2.000000 0.000000 -93.436203 25.372999 129.494003 33.008202 -0.329498 0.074536 0.076296 -0.090674 -167.205002 -2.000000 2.000000 0.000000 -132.337006 100.455002 15.359000 -77.608002 0.244189 0.133538 -0.054881 0.012431 -141.365005 -91.746559 -20.043793 -22.646313 84.203438 -0.284985 4.423905 3.467382 -8.122811 3.487079 -12.919012 3.135872 -10.943221 12.125667 -2.013630 -1.266627 -5.121752 2.276372 0.864980 
